<svg viewBox="0 0 200 200" xmlns="http://www.w3.org/2000/svg">
  <!-- Arrière-plan circulaire -->
  <circle cx="100" cy="100" r="90" fill="#1B5E20" opacity="0.1"/>
  
  <!-- Soleil principal -->
  <circle cx="100" cy="100" r="35" fill="#2E7D32" stroke="#1B5E20" stroke-width="3"/>
  
  <!-- Rayons du soleil -->
  <g stroke="#1B5E20" stroke-width="4" stroke-linecap="round">
    <!-- Rayons cardinaux -->
    <line x1="100" y1="35" x2="100" y2="20"/>
    <line x1="100" y1="165" x2="100" y2="180"/>
    <line x1="35" y1="100" x2="20" y2="100"/>
    <line x1="165" y1="100" x2="180" y2="100"/>
    
    <!-- Rayons diagonaux -->
    <line x1="59.3" y1="59.3" x2="48.2" y2="48.2"/>
    <line x1="140.7" y1="140.7" x2="151.8" y2="151.8"/>
    <line x1="140.7" y1="59.3" x2="151.8" y2="48.2"/>
    <line x1="59.3" y1="140.7" x2="48.2" y2="151.8"/>
    
    <!-- Rayons supplémentaires pour intensité -->
    <line x1="100" y1="45" x2="100" y2="30"/>
    <line x1="100" y1="155" x2="100" y2="170"/>
    <line x1="45" y1="100" x2="30" y2="100"/>
    <line x1="155" y1="100" x2="170" y2="100"/>
  </g>
  
  <!-- Thermomètre -->
  <g fill="#1B5E20">
    <!-- Tube du thermomètre -->
    <rect x="130" y="120" width="12" height="45" fill="#2E7D32" rx="6"/>
    <!-- Réservoir -->
    <circle cx="136" cy="170" r="12" fill="#1B5E20"/>
    <!-- Mercure qui monte -->
    <rect x="134" y="75" width="4" height="90" fill="#1B5E20"/>
    <circle cx="136" cy="170" r="8" fill="#1B5E20"/>
    
    <!-- Graduations -->
    <g stroke="#1B5E20" stroke-width="1">
      <line x1="125" y1="130" x2="128" y2="130"/>
      <line x1="125" y1="140" x2="128" y2="140"/>
      <line x1="125" y1="150" x2="128" y2="150"/>
      <line x1="125" y1="160" x2="128" y2="160"/>
    </g>
  </g>
  
  <!-- Ondes de chaleur -->
  <g stroke="#2E7D32" stroke-width="2" fill="none" opacity="0.7">
    <path d="M60 75 Q65 70 70 75 T80 75"/>
    <path d="M55 85 Q60 80 65 85 T75 85"/>
    <path d="M120 75 Q125 70 130 75 T140 75"/>
    <path d="M125 85 Q130 80 135 85 T145 85"/>
  </g>
  
  <!-- Flèche montante pour indiquer la hausse -->
  <g fill="#1B5E20">
    <line x1="70" y1="140" x2="70" y2="110" stroke="#1B5E20" stroke-width="4"/>
    <polygon points="70,105 62,118 78,118"/>
  </g>
</svg>