<svg viewBox="0 0 100 100" xmlns="http://www.w3.org/2000/svg">
  <!-- Gradient definitions -->
  <defs>
    <linearGradient id="dataGradient" x1="0%" y1="0%" x2="100%" y2="100%">
      <stop offset="0%" style="stop-color:#166534;stop-opacity:1" />
      <stop offset="100%" style="stop-color:#14532D;stop-opacity:1" />
    </linearGradient>
    <linearGradient id="centerGradient" x1="0%" y1="0%" x2="100%" y2="100%">
      <stop offset="0%" style="stop-color:#15803D;stop-opacity:1" />
      <stop offset="100%" style="stop-color:#16A34A;stop-opacity:1" />
    </linearGradient>
  </defs>
  
  <!-- Background circle -->
  <circle cx="50" cy="50" r="45" fill="#F8FAFC" stroke="#E2E8F0" stroke-width="2"/>
  
  <!-- Data sources (left side) -->
  <rect x="10" y="20" width="16" height="12" rx="2" fill="url(#dataGradient)" opacity="0.8"/>
  <rect x="10" y="35" width="16" height="12" rx="2" fill="url(#dataGradient)" opacity="0.8"/>
  <rect x="10" y="50" width="16" height="12" rx="2" fill="url(#dataGradient)" opacity="0.8"/>
  <rect x="10" y="65" width="16" height="12" rx="2" fill="url(#dataGradient)" opacity="0.8"/>
  
  <!-- Data sources (right side) -->
  <rect x="74" y="25" width="16" height="12" rx="2" fill="url(#dataGradient)" opacity="0.8"/>
  <rect x="74" y="42" width="16" height="12" rx="2" fill="url(#dataGradient)" opacity="0.8"/>
  <rect x="74" y="59" width="16" height="12" rx="2" fill="url(#dataGradient)" opacity="0.8"/>
  
  <!-- Connection lines -->
  <path d="M26 26 Q40 26 40 45" stroke="#166534" stroke-width="2" fill="none" opacity="0.6"/>
  <path d="M26 41 Q35 41 40 45" stroke="#166534" stroke-width="2" fill="none" opacity="0.6"/>
  <path d="M26 56 Q35 56 40 50" stroke="#166534" stroke-width="2" fill="none" opacity="0.6"/>
  <path d="M26 71 Q40 71 40 55" stroke="#166534" stroke-width="2" fill="none" opacity="0.6"/>
  
  <path d="M60 45 Q65 31 74 31" stroke="#166534" stroke-width="2" fill="none" opacity="0.6"/>
  <path d="M60 50 Q67 48 74 48" stroke="#166534" stroke-width="2" fill="none" opacity="0.6"/>
  <path d="M60 55 Q65 65 74 65" stroke="#166534" stroke-width="2" fill="none" opacity="0.6"/>
  
  <!-- Central integration hub -->
  <circle cx="50" cy="50" r="12" fill="url(#centerGradient)"/>
  <circle cx="50" cy="50" r="8" fill="#FFFFFF" opacity="0.9"/>
  
  <!-- Integration symbol in center -->
  <path d="M46 46 L54 46 M50 42 L50 58 M47 47 L53 53 M53 47 L47 53" stroke="url(#centerGradient)" stroke-width="1.5" stroke-linecap="round"/>
  
  <!-- Data flow arrows -->
  <path d="M32 45 L38 45" stroke="#15803D" stroke-width="2" fill="none" marker-end="url(#arrowhead)"/>
  <path d="M62 50 L68 50" stroke="#15803D" stroke-width="2" fill="none" marker-end="url(#arrowhead)"/>
  
  <!-- Arrow marker definition -->
  <defs>
    <marker id="arrowhead" markerWidth="10" markerHeight="7" refX="9" refY="3.5" orient="auto">
      <polygon points="0 0, 10 3.5, 0 7" fill="#15803D"/>
    </marker>
  </defs>
  
  <!-- Small data dots for visual interest -->
  <circle cx="18" cy="15" r="1.5" fill="#166534" opacity="0.4"/>
  <circle cx="82" cy="20" r="1.5" fill="#166534" opacity="0.4"/>
  <circle cx="85" cy="75" r="1.5" fill="#166534" opacity="0.4"/>
  <circle cx="15" cy="80" r="1.5" fill="#166534" opacity="0.4"/>
</svg>